<svg xmlns="http://www.w3.org/2000/svg" class="site-logo logo-neg" width="120" height="43" xml:space="preserve" overflow="visible" viewBox="0 0 339.89 122.35">
    <path fill="#8CC63F" d="M62.91 18.39c-11.48 0-22.33 4.11-30.66 11.65-8.62 7.79-13.51 18.3-13.79 29.6-.27 10.93 3.79 21.28 11.46 29.36.03.03.08-.01.06-.04-3.87-6.72-5.81-14.29-5.62-22 .29-11.68 5.35-22.55 14.26-30.6 8.9-8.05 20.58-12.31 32.88-12.01 8.12.2 15.98 2.4 22.85 6.39.04.02.07-.03.04-.05-8.78-8.24-19.91-12.3-31.48-12.3"></path>
    <path fill="#8CC63F" d="M53.7 9.19c-24.07 0-43.9 18.28-44.47 41.25-.26 10.94 3.79 21.29 11.47 29.37.03.03.08-.01.06-.04-3.87-6.72-5.81-14.29-5.62-22 .59-24.11 21.75-43.23 47.14-42.61 8.12.2 15.98 2.4 22.85 6.39.04.02.07-.03.04-.05C76.7 13.52 65.66 9.19 53.7 9.19"></path>
    <defs><path id="a" d="M0 0h339.84v122.22H0z"></path></defs>
    <path fill="#8CC63F" d="M.01 41.25C-.26 52.19 3.8 62.53 11.48 70.61c.03.03.08-.01.06-.04-3.87-6.72-5.81-14.29-5.62-22 .29-11.68 5.35-22.55 14.25-30.6S40.76 5.66 53.05 5.96c8.12.2 15.98 2.4 22.85 6.39.04.02.07-.03.04-.06C67.82 4.64 57.14.29 45.63.01 33.72-.28 22.42 3.86 13.8 11.65 5.19 19.43.29 29.95.01 41.25"></path>
    <path class="pos-neg" fill="#FFF" d="M31.5 103.96c11.48 0 22.33-4.11 30.66-11.65 8.62-7.79 13.51-18.3 13.79-29.6.27-10.93-3.79-21.28-11.47-29.36-.03-.03-.08.01-.06.04 3.87 6.72 5.81 14.29 5.62 22-.29 11.68-5.35 22.55-14.25 30.6S35.21 98.3 22.91 98c-8.12-.2-15.98-2.4-22.85-6.39-.04-.02-.07.03-.04.05 8.78 8.23 19.91 12.3 31.48 12.3"></path>
    <path class="pos-neg" fill="#FFF" d="M40.71 113.15c24.07 0 43.9-18.28 44.47-41.25.27-10.93-3.79-21.28-11.47-29.36-.03-.03-.08.01-.06.04 3.87 6.72 5.81 14.29 5.62 22-.59 24.11-21.75 43.23-47.14 42.61-8.12-.2-15.98-2.4-22.85-6.39-.04-.02-.07.03-.04.05 8.47 7.98 19.51 12.3 31.47 12.3"></path>
    <defs><path id="c" d="M0 0h339.84v122.22H0z"></path></defs>
    <path class="pos-neg" fill="#FFF" d="M94.4 81.09c.27-10.94-3.79-21.28-11.47-29.36-.03-.03-.08.01-.06.04 3.87 6.72 5.81 14.29 5.62 22-.29 11.68-5.35 22.55-14.26 30.6-8.9 8.05-20.59 12.3-32.88 12.01-8.12-.2-15.98-2.4-22.85-6.39-.04-.02-.07.03-.04.05 8.12 7.65 18.8 12 30.31 12.28 11.92.29 23.22-3.84 31.84-11.63 8.61-7.78 13.51-18.29 13.79-29.6"></path>
    <path class="pos-neg" fill="#FFF" d="M144.74 89.88c-5.66 0-10.82-1.33-14.65-3.32l.41-7.3c3.75 2.16 8.41 3.9 13.73 3.9 8.16 0 11.9-4.06 11.9-9.04 0-4.89-4.49-7.8-10.15-9.87l-2.08-.75c-8.07-2.9-13.48-6.97-13.48-16.34 0-8.88 6.74-14.77 18.06-14.77 5.66 0 9.74 1.16 13.07 2.74l-.42 7.05c-3.5-1.58-7.57-3.07-12.07-3.07-6.57 0-10.73 2.49-10.73 8.05 0 4.89 3.58 7.3 9.74 9.54l2.08.75c8.66 3.07 13.9 7.63 13.9 16.43 0 9.11-6.66 16-19.31 16M213.21 88.8l-4.58-13.94h-21.89l-4.58 13.94h-7.66l18.97-55.33h8.99l18.89 55.33h-8.14m-15.48-48.03h-.08l-8.99 27.54h18.06l-8.99-27.54zM246.77 89.88c-5.66 0-10.82-1.33-14.64-3.32l.42-7.3c3.74 2.16 8.4 3.9 13.73 3.9 8.16 0 11.9-4.06 11.9-9.04 0-4.89-4.49-7.8-10.15-9.87l-2.08-.75c-8.07-2.9-13.48-6.97-13.48-16.34 0-8.88 6.74-14.77 18.06-14.77 5.66 0 9.74 1.16 13.07 2.74l-.42 7.05c-3.49-1.58-7.57-3.07-12.07-3.07-6.57 0-10.74 2.49-10.74 8.05 0 4.89 3.58 7.3 9.74 9.54l2.08.75c8.65 3.07 13.9 7.63 13.9 16.43-.01 9.11-6.67 16-19.32 16M282.18 33.47h7.66V88.8h-7.66z"></path>
    <defs><path id="e" d="M0 0h339.84v122.22H0z"></path></defs>
    <path class="pos-neg" fill="#FFF" d="M320.58 89.88c-5.66 0-10.82-1.33-14.65-3.32l.42-7.3c3.74 2.16 8.4 3.9 13.73 3.9 8.16 0 11.9-4.06 11.9-9.04 0-4.89-4.49-7.8-10.15-9.87l-2.08-.75c-8.07-2.9-13.48-6.97-13.48-16.34 0-8.88 6.74-14.77 18.06-14.77 5.66 0 9.74 1.16 13.07 2.74l-.42 7.05c-3.5-1.58-7.57-3.07-12.07-3.07-6.57 0-10.74 2.49-10.74 8.05 0 4.89 3.58 7.3 9.74 9.54l2.08.75c8.66 3.07 13.9 7.63 13.9 16.43 0 9.11-6.66 16-19.31 16"></path>
    </svg>